<svg version="1.1" id="Layer_1" xmlns="http://www.w3.org/2000/svg" xmlns:xlink="http://www.w3.org/1999/xlink" x="0px" y="0px" viewBox="0 0 500 500" style="width: 161px;" xml:space="preserve" data-imageid="career-2-55" imageName="Career 2" class="illustrations_image">
<style type="text/css">
	.st0_career-2-55{fill:#80D2D0;}
	.st1_career-2-55{fill:#FAD374;}
	.st2_career-2-55{fill:#363636;}
	.st3_career-2-55{fill:#EB773A;}
	.st4_career-2-55{fill:#1C5028;}
	.st5_career-2-55{fill:#EFEEEC;}
	.st6_career-2-55{fill:#FFAE46;}
	.st7_career-2-55{fill:#68E1FD;}
	.st8_career-2-55{opacity:0.61;fill:#363636;enable-background:new    ;}
	.st9_career-2-55{opacity:0.29;fill:#363636;enable-background:new    ;}
	.st10_career-2-55{fill:#FFFFFF;}
</style>
<ellipse id="Base_career-2-55" class="st0_career-2-55" cx="251.4" cy="314.5" rx="222.6" ry="86"/>
<g id="Character_Left_Foot_career-2-55">
	<path class="st1_career-2-55" d="M337.8,217.9c-2,0.4-4,1.1-5.9,1.9c-1.9,0.9-10.5,1-11.3,0.9s-3.8-1.4-4.6-0.8s-1.4,3.1-1.4,3.1&#10;&#9;&#9;s-4.5,0.3-5.5,3c0,0-0.6,2.8,4.9,7.4c0,0.1,0,0.2,0,0.3c0.8,0.9,1.6,1.7,2.4,2.4c1.9,0.3,3.9,0.1,5.6-0.7c2.3-0.9,8.5-2,11.2-3.8&#10;&#9;&#9;s6.4-6.7,7.1-8.8c0.5-1.3,0.3-2.8-0.7-3.8C339.3,218.5,338.6,218,337.8,217.9z"/>
	<path class="st2_career-2-55" d="M314.9,222.4c0,0-4.7,0.9-5.7,3.7s4.2,6.8,4.2,6.8s2.8,2.4,7.4,0.4s5.5-0.2,10.7-3.5s8.1-9,7.5-11&#10;&#9;&#9;s-4.2-0.2-4.5-0.2s-6.2,2-8.2,1.8s-5.5-0.3-7-0.6s-2.6-0.9-3.5,0.3C315.3,220.7,315,221.5,314.9,222.4z"/>
	<path class="st3_career-2-55" d="M328.9,220L328.9,220c-0.6,0.5-1.2,1-1.7,1.6l-0.8-1.3c-0.3,0-0.6,0-0.9,0v0.1c-0.4,0.4-0.9,0.8-1.2,1.2&#10;&#9;&#9;c-0.1-0.3-0.3-0.6-0.4-1c-0.1-0.2-0.3-0.3-0.5-0.2c0,0,0,0,0,0c-0.1,0-0.1,0.1-0.2,0.1c-0.5,0.4-1,0.9-1.5,1.3&#10;&#9;&#9;c-0.1-0.4-0.2-0.8-0.3-1.1c-0.1-0.5-0.9-0.2-0.8,0.3c0.1,0.5,0.3,1,0.5,1.5c-0.9,0.8-1.6,1.8-2.1,2.9c-0.1,0.2,0,0.4,0.2,0.5&#10;&#9;&#9;s0.4,0,0.5-0.2c0.5-0.9,1-1.7,1.7-2.4c0.3,0.7,0.6,1.3,1,1.9c-0.1,0.5,0.7,0.6,0.8,0.1c0.2-0.7,0.5-1.4,0.9-2.1&#10;&#9;&#9;c0.1,0.4,0.3,0.7,0.5,1.1c0.1,0.2,0.1,0.4,0.2,0.5l0.1,0.1l0,0c-0.1,0.2,0,0.4,0.2,0.5c0.2,0.1,0.4,0,0.5-0.2l0,0&#10;&#9;&#9;c0.4-0.8,0.9-1.6,1.5-2.4c0.4,0.6,0.7,1.2,1,1.8c0.1,0.2,0.4,0.2,0.6,0.1c0.1-0.1,0.1-0.1,0.2-0.2c0.2-1.4,0.4-2.8,0.8-4.1l0.1-0.1&#10;&#9;&#9;c0.2-0.1,0.2-0.4,0.1-0.6c0,0,0,0,0,0L328.9,220z M322.7,224.3c-0.3-0.5-0.5-1-0.8-1.5c0.5-0.4,0.9-0.8,1.4-1.2&#10;&#9;&#9;c0.1,0.3,0.2,0.6,0.4,0.9C323.3,223,323,223.6,322.7,224.3L322.7,224.3z M325.4,224.1c-0.1-0.3-0.3-0.6-0.4-0.8l-0.3-0.8&#10;&#9;&#9;c0.4-0.5,0.8-1,1.3-1.4c0.2,0.4,0.5,0.7,0.7,1.1C326.1,222.8,325.7,223.4,325.4,224.1L325.4,224.1z M328.2,223.3l-0.6-1&#10;&#9;&#9;c0.3-0.4,0.6-0.7,1-1C328.4,222,328.3,222.6,328.2,223.3L328.2,223.3z"/>
	<path class="st4_career-2-55" d="M239.7,195.9c0,0,2.3,10.3,9.9,14.3c7.3,3.8,28.7-3.5,31.4-3.4s27.1,21.9,27.1,21.9c6.9-1.7,9.9-9.7,9.9-9.7&#10;&#9;&#9;s-21.1-29.7-29.1-32.1s-42.9-6.1-44.9-6.8"/>
</g>
<g id="Clouds_2_career-2-55">
	<path class="st5_career-2-55" d="M138.7,276.5c0,0-17.9-23.5-33.7-16.5s-13.5,23.4-13.5,23.4s-14.9-4.2-24.3,10.5s0,26,0,26h85.3"/>
	<path class="st5_career-2-55" d="M151.9,235.4c-0.5-3.9-4.1-6.4-7.8-6.7c0-0.4,0-0.8,0.1-1.1c0-2.5-1.6-4.8-3.9-5.8c-2.5-1.1-4.9-0.3-6.9,1.3&#10;&#9;&#9;c-1.4,1.2-2.6,2.6-3.3,4.3c-3.7-1-7.7,0.6-9.7,3.9c-1.7,3-0.7,6.9,2.3,8.7c0.8,0.4,1.6,0.8,2.4,1.2c-1.7,5.2-1.1,11.1,4.8,12.8&#10;&#9;&#9;c6.6,1.9,9.9-3.3,12-8.8c1.2-0.1,2.4-0.3,3.6-0.7C149.2,243.1,152.5,239.9,151.9,235.4z"/>
</g>
<g id="Rocket_career-2-55">
	<path class="st3_career-2-55" d="M165.9,255c0,0-48.5,24.9-61,86c0,0,46.7,10.7,110.3-40.1"/>
	<path class="st6_career-2-55" d="M165.2,262.8c0,0-20.9,18.1-26.8,31s-13.9,31.8-13.9,31.8s36.1,3.7,70.4-16.6S197.5,249.3,165.2,262.8z"/>
	<path class="st1_career-2-55" d="M185.7,256.6c-1.3,2.1-22.6,13.6-26.9,30.7l7-5.1c0,0-12,16.2-17.1,25.6c0,0,28.8-10.9,27.9-10.2l-8.2,6&#10;&#9;&#9;c0,0,21.8-0.1,36.7-13.1s-4.9-36.4-4.9-36.4L185.7,256.6z"/>
	<path class="st7_career-2-55 targetColor" d="M249.5,257.6c0,0-4.1,24.2-12.2,30.1s-34.3,25.1-34.3,25.1l-4.2-5.8c0,0,18.4-31.6,21.8-45.6&#10;&#9;&#9;S249.5,257.6,249.5,257.6z" style="fill: rgb(104, 225, 253);"/>
	<path class="st8_career-2-55" d="M249.5,257.6c0,0-4.1,24.2-12.2,30.1s-34.3,25.1-34.3,25.1l-4.2-5.8c0,0,18.4-31.6,21.8-45.6&#10;&#9;&#9;S249.5,257.6,249.5,257.6z"/>
	<path class="st7_career-2-55 targetColor" d="M224.3,223c0,0-24.3-3.4-32.4,2.6s-34.4,25.1-34.4,25.1l4.2,5.8c0,0,35.7-8,50.1-7S224.3,223,224.3,223z" style="fill: rgb(104, 225, 253);"/>
	<path class="st8_career-2-55" d="M224.3,223c0,0-24.3-3.4-32.4,2.6s-34.4,25.1-34.4,25.1l4.2,5.8c0,0,35.7-8,50.1-7S224.3,223,224.3,223z"/>
	<path class="st7_career-2-55 targetColor" d="M407.8,115.2c0,0-133.7,30.9-203,127.8c0,0-16.2,16.7-8.6,26.2s33.2,2.5,33.2,2.5S313.9,249.3,407.8,115.2z" style="fill: rgb(104, 225, 253);"/>
	<path class="st7_career-2-55 targetColor" d="M204.9,243c0,0-16.7-2.3-22.3,1.8s-23.7,17.3-23.7,17.3l2.9,4c0,0,24.6-5.5,34.5-4.8S204.9,243,204.9,243z" style="fill: rgb(104, 225, 253);"/>
	<path class="st7_career-2-55 targetColor" d="M224.6,270c0,0-2.9,16.7-8.4,20.7S192.5,308,192.5,308l-2.9-4c0,0,12.7-21.8,15-31.4S224.6,270,224.6,270z" style="fill: rgb(104, 225, 253);"/>
	<path class="st9_career-2-55" d="M204.9,243c0,0-16.7-2.3-22.3,1.8s-23.7,17.3-23.7,17.3l2.9,4c0,0,24.6-5.5,34.5-4.8S204.9,243,204.9,243z"/>
	<path class="st9_career-2-55" d="M224.6,270c0,0-2.9,16.7-8.4,20.7S192.5,308,192.5,308l-2.9-4c0,0,12.7-21.8,15-31.4S224.6,270,224.6,270z"/>
	<path class="st7_career-2-55 targetColor" d="M342.8,138.1c0,0-0.8,22.5,22.9,31.2l-14.1,15.5c0,0-29.6-17.3-24.6-39.4L342.8,138.1z" style="fill: rgb(104, 225, 253);"/>
	<path class="st7_career-2-55 targetColor" d="M256.4,188.8c0,0-0.4,38.1,35,49.6L264.7,256c0,0-38-13.9-30.3-47.7L256.4,188.8z" style="fill: rgb(104, 225, 253);"/>
	<circle class="st7_career-2-55 targetColor" cx="317.6" cy="180" r="5.4" style="fill: rgb(104, 225, 253);"/>
	<circle class="st7_career-2-55 targetColor" cx="292.1" cy="198.6" r="14" style="fill: rgb(104, 225, 253);"/>
	<path class="st8_career-2-55" d="M342.8,138.1c0,0-0.8,22.5,22.9,31.2l-14.1,15.5c0,0-29.6-17.3-24.6-39.4L342.8,138.1z"/>
	<path class="st8_career-2-55" d="M256.4,188.8c0,0-0.4,38.1,35,49.6L264.7,256c0,0-38-13.9-30.3-47.7L256.4,188.8z"/>
	<circle class="st8_career-2-55" cx="317.6" cy="180" r="5.4"/>
	<circle class="st8_career-2-55" cx="292.1" cy="198.6" r="14"/>
</g>
<g id="Character_career-2-55">
	<path class="st4_career-2-55" d="M255.6,142.3c0,0,28.2,27.4,27.2,28s-12.2,9.7-12.2,9.7l-19.8-18.9"/>
	<path class="st1_career-2-55" d="M322.4,244.6c-2.1,0-4.2,0.2-6.3,0.6c-2.1,0.5-10.8-1.4-11.5-1.6s-3.5-2.2-4.4-1.8s-2.1,2.8-2.1,2.8&#10;&#9;&#9;s-4.6-0.7-6.2,1.8c0,0-1.2,2.7,3.3,8.6c0,0.1-0.1,0.2-0.1,0.3c0.6,1,1.2,2,1.9,3c1.8,0.8,3.9,1,5.8,0.5c2.5-0.4,9-0.1,12.1-1.3&#10;&#9;&#9;s7.9-5.3,9.1-7.2c0.8-1.2,0.9-2.7,0.2-4C323.7,245.6,323.1,245,322.4,244.6z"/>
	<path class="st2_career-2-55" d="M298.4,244c0,0-5-0.2-6.6,2.5s2.7,7.8,2.7,7.8s2.3,3,7.3,2s5.6,1,11.5-1.1s10.1-7.2,10-9.4s-4.1-1.1-4.5-1.2&#10;&#9;&#9;s-6.7,0.6-8.6,0s-5.4-1.6-6.9-2.2s-2.5-1.5-3.6-0.5C299.1,242.4,298.6,243.2,298.4,244z"/>
	<path class="st3_career-2-55" d="M313,244.8L313,244.8c-0.7,0.3-1.4,0.8-2.1,1.2c-0.2-0.5-0.3-1-0.5-1.4c-0.3-0.1-0.6-0.1-0.9-0.2&#10;&#9;&#9;c0,0,0,0,0,0.1c-0.5,0.3-1,0.6-1.5,0.9c-0.1-0.4-0.1-0.7-0.2-1c0-0.1-0.1-0.2-0.1-0.2c-0.1-0.1-0.2-0.1-0.4-0.1&#10;&#9;&#9;c-0.1,0-0.1,0-0.2,0.1c-0.6,0.3-1.2,0.6-1.8,1c0-0.4-0.1-0.8-0.1-1.2s-0.8-0.4-0.8,0.1c0,0.5,0,1.1,0.1,1.6c-1.1,0.6-2,1.5-2.8,2.4&#10;&#9;&#9;c-0.3,0.4,0.3,0.9,0.7,0.5c0.7-0.8,1.4-1.4,2.3-2c0.1,0.7,0.3,1.5,0.6,2.2c-0.2,0.4,0.5,0.7,0.8,0.3c0.4-0.7,0.8-1.3,1.4-1.9&#10;&#9;&#9;c0.1,0.4,0.1,0.8,0.2,1.2c0,0.2,0.1,0.4,0.1,0.6c0,0.1,0,0.1,0,0.2l0,0c-0.1,0.2-0.1,0.4,0.1,0.6c0.2,0.1,0.4,0.1,0.6-0.1&#10;&#9;&#9;c0.6-0.7,1.3-1.4,2-2c0.2,0.7,0.4,1.3,0.6,2c0.1,0.2,0.3,0.3,0.5,0.2c0.1,0,0.2-0.1,0.2-0.2c0.5-1.4,1.1-2.7,1.7-4l0.1-0.1&#10;&#9;&#9;c0.2-0.1,0.3-0.3,0.2-0.5c0,0,0,0,0-0.1C313.6,244.8,313.3,244.8,313,244.8z M305.8,247.7c-0.2-0.6-0.3-1.1-0.4-1.7&#10;&#9;&#9;c0.5-0.3,1.1-0.6,1.7-0.9c0,0.3,0.1,0.6,0.1,1C306.7,246.5,306.2,247.1,305.8,247.7L305.8,247.7z M308.5,248.1&#10;&#9;&#9;c-0.1-0.3-0.2-0.6-0.2-0.9l-0.1-0.9c0.5-0.4,1-0.8,1.6-1.1c0.1,0.4,0.3,0.8,0.4,1.3C309.6,247,309,247.5,308.5,248.1L308.5,248.1z&#10;&#9;&#9; M311.5,247.9l-0.4-1.1c0.4-0.3,0.8-0.5,1.2-0.8C312,246.7,311.7,247.3,311.5,247.9L311.5,247.9z"/>
	<path class="st2_career-2-55" d="M227.7,199c0,0,0,11.1,7,17c6.6,5.6,30.3,2.9,33.1,3.7s22.8,28.6,22.8,28.6c7.5-0.1,12.4-7.7,12.4-7.7&#10;&#9;&#9;s-15-35.3-22.7-39.6s-42.7-16-44.6-17.2"/>
	<path class="st4_career-2-55" d="M244.3,198.1c3.1-0.7,6.2-1.6,9.1-2.8c0.7-0.3,4.6-1.5,4.7-2.3c0.1-0.5,0-7.4,0.1-7.9&#10;&#9;&#9;c0.8-8.8,0.1-17.6,0.3-26.5c0.1-4.6,1.1-13.1-2.9-16.4c-3-2.5-9.9-1.3-12.6-0.1c-1.6,0.7-3.1,1.6-4.5,2.6c-5,3.5-7.4,10.2-8.8,15.9&#10;&#9;&#9;c-2.3,9.1-1.3,28.9-2,38.3c0,0.6,4.3,0.7,4.8,0.7C236.5,199.5,240.4,199,244.3,198.1z"/>
	<path class="st3_career-2-55" d="M231.9,224c-0.7-3.6-3.7-6.2-7.4-6.4c-6.4-0.4-3,9.2-3,9.2l-3.2-0.2c0,0-5-9.6,5.1-12.2s12.4,9.4,12.4,9.4&#10;&#9;&#9;L231.9,224z"/>
	<path class="st6_career-2-55" d="M219.5,212.5c0-0.1,0-0.2,0-0.4c-0.1-0.1-0.1-0.2-0.1-0.4c-0.5-3-1.1-6-1.6-8.9c-0.1-0.3,0-0.6,0.3-0.7&#10;&#9;&#9;c-0.1-0.5-0.2-1.1-0.2-1.6c0-0.4,0.3-0.8,0.8-0.9c0.1-0.5,0.6-0.8,1-0.7c0.2,0,0.4,0.2,0.5,0.3c0.3-0.6,1.1-1,1.5-0.2&#10;&#9;&#9;c0.4,0.9,0.9,1.8,1.3,2.6l0,0v-0.3c0-0.2,0.1-0.4,0.2-0.6c0-0.8-0.1-1.5-0.2-2.2c-0.1-1.1,1.6-1.2,1.8-0.1c0,0.4,0.1,0.8,0.1,1.1&#10;&#9;&#9;c0.5-0.4,1.4-0.2,1.4,0.6c-0.2,2.8,0.1,5.6,0.7,8.4c0.9,1.5,1.8,3,2.6,4.6c0.5,1,1.2,2.3,0,3.1c-0.4,0.3-0.9,0.2-1.2-0.2&#10;&#9;&#9;c-0.6-1-1.2-2.1-1.7-3.1c0,0.4,0,0.9,0,1.4c0,1,0,1.9-0.1,2.9c-0.1,0.5-0.2,1-0.8,1.2c-0.3,0.1-0.7,0.1-1-0.1c0,0.6-0.4,1-1,1&#10;&#9;&#9;c0,0,0,0-0.1,0c-0.8,0-1.2-0.7-1.5-1.5C219.8,217.4,219.8,214.4,219.5,212.5z"/>
	<path class="st3_career-2-55" d="M208.2,227.2c8-1.6,29.7-6.4,37.9-8.2c1.8-0.4,3.5,0.7,3.9,2.5c0,0,0,0,0,0l5.3,23.8c0.4,1.8-0.7,3.6-2.5,4&#10;&#9;&#9;c0,0-0.1,0-0.1,0l-40.3,7.4c-1.8,0.3-3.5-0.9-3.9-2.7c0-0.1,0-0.1,0-0.2l-3-22.9C205.3,229.2,206.4,227.5,208.2,227.2z"/>
	<path class="st4_career-2-55" d="M243,142.2c0,0-16.1,0.9-20.8,11.2s-14.5,20.6-12.5,33.7c1,7.4,3.1,14.5,6.2,21.3l12.4-4&#10;&#9;&#9;c0,0-5.6-20.3-4.2-23.1s10.6-16.4,10.6-16.4"/>
	<path class="st10_career-2-55" d="M229.2,146.4c0,0,5,7.2,13.8,6.9s9.6-5.8,8.7-8.1c-0.8-1.6-2-3.1-3.4-4.2C248.3,141,236.9,141,229.2,146.4z"/>
	<path class="st6_career-2-55" d="M252.1,124.1c0,0,1,15.4-2.8,16.7s-8.3-0.1-9.9-1.9s-5.8-11-4.6-12.9S249.6,121.6,252.1,124.1z"/>
	<path class="st6_career-2-55" d="M238.3,136.8l0.5,7.6c0,0,2.6,1.6,9-1.6l0.3-4.5"/>
	<path d="M253.9,118.3c-0.9-0.2-1.8-0.2-2.8,0c-0.5-1.3-1.4-2.3-2.5-3c-2.1-1.1-4.7-1-6.6,0.4c-0.3,0.2-0.6,0.5-0.9,0.8&#10;&#9;&#9;c-1.3-0.9-3-1.2-4.6-0.9c-1.8,0.4-3.2,1.9-3.6,3.7c-0.1,0.5-0.1,1,0,1.5c-0.2,0-0.5,0.1-0.7,0.2c-1.5,0.6-2.7,1.9-2.9,3.5&#10;&#9;&#9;c-0.2,1.4,0.2,2.8,1.1,3.8c-0.9,1.3-1,2.9-0.3,4.3c0.8,1.4,2.3,2.2,3.9,2.2c-0.1,0.8-0.1,1.5,0.2,2.3c1,1.7,3.3,2.1,5.4,2.3&#10;&#9;&#9;c0-1-0.1-1.9-0.2-2.9c0-0.1,0-0.2,0-0.3c-0.8-0.5-1.4-1.1-2-1.9c-0.8-1-1.4-2.4-0.5-3.5s2.6-0.8,3.5,0.3c0.1-0.5,0.3-1,0.6-1.5l0,0&#10;&#9;&#9;c0.6-2.6,3.1-3.2,5.5-3.5c3.9,1.4,9.4,2,10.2-2.8C257.1,121.3,256.2,118.9,253.9,118.3z"/>
	<path d="M241,129.8c0,0,0,4.6,1.1,5.3s3.7,0.7,5.6,0.3s3.7-0.4,4.3-0.6c0,0-0.7,4.9-2,6.4s-5.6,0.7-6.6,0.2s-3.1-4.6-3.1-4.6&#10;&#9;&#9;l-0.8-6.6L241,129.8z"/>
	<path class="st5_career-2-55" d="M238.5,140.1c0,0-1.6,1.8-1.9,2.2c-0.6,0.5-1.3,1.1-2,1.5c0,0,5.4,6.3,8.8,6.9l1.5-4.2l4,2.4&#10;&#9;&#9;c0.5-2.4,0.1-4.8-1.1-6.9c0,0-0.2,1.4-3.2,1.9C241.8,144.3,238.5,140.1,238.5,140.1z"/>
</g>
<g id="Clouds_1_career-2-55">
	<path class="st5_career-2-55" d="M286.2,317.7c0,0.1,0,0.2,0,0.3H412c-0.1-1-0.3-2.1-0.5-3.1c-1.9-6.4-7.5-11-14.2-11.6&#10;&#9;&#9;c-0.1-8.1-2.2-16-8.7-19.8c-5.1-3-11.7-2.4-16.7,0.6c-0.1,0-0.1,0.1-0.2,0.1c-1-4.2-2.4-8.2-4.3-12c-2.2-4.5-8.7-5.8-12.8-3.4&#10;&#9;&#9;c-5,3-8.9,7.7-10.8,13.2c-2.7-7.6-7.9-15.2-16.3-15.9c-11-0.9-17,9.1-18.3,18.7c-0.5,4.3-0.4,8.6,0.3,12.9c-4-1.5-8.4-1.6-12.5-0.4&#10;&#9;&#9;c-8.5,2.5-13.6,10.9-11.1,19.5C285.9,317.1,286,317.4,286.2,317.7z"/>
	<path class="st5_career-2-55" d="M165.3,364.4c0,0.1,0,0.2,0,0.3h125.8c-0.1-1-0.3-2.1-0.5-3.1c-1.9-6.4-7.5-11-14.2-11.6&#10;&#9;&#9;c-0.1-8.1-2.2-16-8.7-19.8c-5.1-3-11.7-2.4-16.7,0.6c-0.1,0-0.1,0.1-0.2,0.1c-1-4.1-2.4-8.2-4.3-12c-2.2-4.5-8.7-5.8-12.8-3.4&#10;&#9;&#9;c-5,3-8.9,7.7-10.8,13.3c-2.7-7.6-7.9-15.2-16.3-15.9c-11-0.9-17,9.1-18.3,18.7c-0.5,4.3-0.4,8.6,0.3,12.9c-4-1.5-8.4-1.7-12.5-0.5&#10;&#9;&#9;c-8.5,2.5-13.6,10.8-11.1,19.5C165,363.8,165.2,364.1,165.3,364.4z"/>
	<path class="st5_career-2-55" d="M143,342.9c-0.6-0.2-1.1-0.4-1.7-0.5c0.5-2.2,0.5-4.5,0.1-6.7c-0.4-2.2-3.1-3.9-5.3-4.1&#10;&#9;&#9;c-2.5-0.3-4.9,0.7-6.3,2.8l-0.1,0.1c-3-1.8-6.7-1.9-9.8-0.3c-4.3,2.3-5.2,7-2.8,10.5l-0.1,0.1c-2.1,1.4-3.4,3.3-3,5.8&#10;&#9;&#9;c0.4,2.4,2.2,4.3,4.6,4.8c1.2,0.3,2.4,0.5,3.6,0.6c1,4,3.5,7.4,8.2,7.4c5.2,0,7.1-3.5,7.5-7.6c3,0.2,5.8-1,7.9-3.1&#10;&#9;&#9;C149.1,349,147.5,344.5,143,342.9z"/>
</g>
</svg>